<svg width="48" height="48" viewBox="0 0 48 48" fill="none" xmlns="http://www.w3.org/2000/svg">
<rect width="48" height="48" rx="24" fill="#0F62FE"/>
<path d="M20.3951 33.5L14.8271 25.268L12.4511 27.908V33.5H10.4351V16.748H12.4511V25.652H12.5231L14.9231 22.748L19.9871 16.748H22.4591L16.2191 23.924L22.8911 33.5H20.3951ZM34.9967 35.756V37.436H32.5247C31.2047 37.436 30.5087 36.596 30.5087 35.468V33.764C26.6447 33.404 24.1967 30.38 24.1967 25.124C24.1967 19.508 26.9807 16.46 31.3007 16.46C35.6207 16.46 38.4047 19.508 38.4047 25.124C38.4047 30.236 36.1007 33.212 32.4287 33.716V35.756H34.9967ZM31.3007 31.988C34.2047 31.988 36.2447 29.828 36.2447 26.516V23.732C36.2447 20.42 34.2047 18.26 31.3007 18.26C28.3967 18.26 26.3567 20.42 26.3567 23.732V26.516C26.3567 29.828 28.3967 31.988 31.3007 31.988Z" fill="white"/>
</svg>
