<svg width="80" height="80" viewBox="0 0 80 80" fill="none" xmlns="http://www.w3.org/2000/svg">
<path d="M16.9363 64.6315V63.1538C15.3758 62.243 14.3694 60.5615 14.3694 58.6698C14.3694 55.8035 16.7006 53.4723 19.5669 53.4723V28.5742H12V64.6315H16.9363Z" fill="#78A9FF"/>
<path d="M58.3117 56.6316H54.9678" stroke="#0043CE" stroke-width="3" stroke-linecap="round" stroke-linejoin="round"/>
<path d="M60.529 47.9374H55.6055" stroke="#0043CE" stroke-width="3" stroke-linecap="round" stroke-linejoin="round"/>
<path d="M62.1718 39.2239H56.1973" stroke="#0043CE" stroke-width="3" stroke-linecap="round" stroke-linejoin="round"/>
<path d="M12 64.6315H25.293C26.3121 64.6315 27.1337 63.8035 27.1337 62.7908V30.415C27.1337 29.3959 26.3057 28.5742 25.293 28.5742H12V64.6315Z" stroke="#0043CE" stroke-width="2" stroke-linecap="round" stroke-linejoin="round"/>
<path d="M27.1338 62.001C27.1338 62.001 41.5542 64.5679 58.1656 64.5679C60.4841 64.5679 62.6625 63.3195 62.6625 60.6125C62.6625 58.3832 60.8153 56.638 58.3185 56.638H60.1848C62.5032 56.638 64.5287 54.8864 64.6816 52.5743C64.8472 50.0392 62.8344 47.931 60.3376 47.931H62.2039C64.5223 47.931 66.5478 46.1794 66.7007 43.8673C66.8663 41.3322 64.8536 39.2239 62.3567 39.2239H64.223C66.5414 39.2239 68.5669 37.4724 68.7198 35.1603C68.8854 32.6252 66.8726 30.5169 64.3758 30.5169H48.4841C47.1529 30.5169 46.1529 29.294 46.4395 27.9946C47.6306 22.5169 46.5988 17.8099 44.7771 14.0138C43.1656 10.6571 38.1274 11.7399 38.0574 15.466C37.8217 28.0902 27.1465 31.415 27.1465 31.415" stroke="#0043CE" stroke-width="2" stroke-linecap="round" stroke-linejoin="round"/>
<path d="M22.1338 58.6698C22.1338 57.2494 20.9873 56.1029 19.5669 56.1029C18.1465 56.1029 17 57.2494 17 58.6698C17 60.0902 18.1465 61.2367 19.5669 61.2367C20.9873 61.2367 22.1338 60.0902 22.1338 58.6698Z" stroke="#0043CE" stroke-width="2" stroke-linecap="round" stroke-linejoin="round"/>
<path d="M19.5664 61.2367V64.6316" stroke="#0043CE" stroke-width="2" stroke-linecap="round" stroke-linejoin="round"/>
</svg>
