<svg width="80" height="80" viewBox="0 0 80 80" fill="none" xmlns="http://www.w3.org/2000/svg">
<path d="M48.6844 47V44.7922C46.5304 44.619 44.9829 43.71 44 42.368L45.6521 40.6147C46.5722 41.6753 47.6179 42.2814 48.8308 42.4329V37.9524L48.3498 37.8658C45.6103 37.368 44.4601 35.7013 44.4601 33.5801C44.4601 31.1558 46.0076 29.5758 48.6844 29.2511V27H50.7338V29.2294C52.5323 29.4459 53.808 30.2035 54.7072 31.3506L53.0551 33.1039C52.4278 32.3247 51.6122 31.8268 50.5875 31.6537V35.7662L51.1103 35.8528C53.8289 36.3723 55 37.9524 55 40.0952C55 42.5195 53.4734 44.2727 50.7338 44.7056V47H48.6844ZM47.0323 33.4935C47.0323 34.5541 47.5551 35.0952 48.8308 35.3983V31.5887C47.6179 31.7619 47.0323 32.4113 47.0323 33.4935ZM52.4487 40.2684C52.4487 39.1212 51.884 38.5801 50.5875 38.2987V42.4113C51.8213 42.1948 52.4487 41.4372 52.4487 40.2684Z" fill="#0043CE"/>
<path d="M63.3266 51.112C66.9669 48.3985 67.9887 44.5404 67.9998 41.0731C68.011 37.0866 66.6207 33.2173 64.2422 30.0181L56.7828 19.9847H41.9143L34.4549 30.0181C32.0764 33.2173 30.6862 37.0866 30.6973 41.0731C30.7085 44.9089 31.9592 49.2249 36.6157 51.9384" stroke="#0043CE" stroke-width="2" stroke-miterlimit="10"/>
<path d="M57.0341 16.9808H41.6631C40.9323 16.9808 40.3398 17.5733 40.3398 18.3041V18.6558C40.3398 19.3867 40.9323 19.9791 41.6631 19.9791H57.0341C57.765 19.9791 58.3574 19.3867 58.3574 18.6558V18.3041C58.3574 17.5733 57.765 16.9808 57.0341 16.9808Z" stroke="#0043CE" stroke-width="2" stroke-miterlimit="10"/>
<path d="M54.5211 10.3478L53.075 11.7939L52.4385 11.1574C50.7802 9.49914 48.089 9.49914 46.4252 11.1574L45.7887 11.7939L44.3426 10.3478C42.997 9.00222 40.8195 9.00222 39.4739 10.3478L37.6816 12.1401L42.6787 16.9809H56.1905L61.1876 12.1401L59.3953 10.3478C58.0498 9.00222 55.8723 9.00222 54.5267 10.3478H54.5211Z" stroke="#0043CE" stroke-width="2" stroke-miterlimit="10"/>
<path d="M42.9304 59.6881H45.5323C48.0169 59.6881 50.4456 58.9399 52.5003 57.5441L54.4042 56.2543C54.7169 56.0421 54.8286 55.6122 54.6164 55.2939C54.3093 54.8361 53.924 54.5123 53.5276 54.2778C52.5952 53.7362 51.4562 53.7809 50.4903 54.2554C46.9672 55.9751 43.8238 54.5234 43.8238 54.5234C42.6848 53.8088 41.5904 53.2504 40.5575 52.8261C36.208 51.0394 31.2332 51.7094 27.3975 54.4341" stroke="#0043CE" stroke-width="2" stroke-miterlimit="10"/>
<path d="M27.3975 63.5908C27.3975 63.5908 33.2824 62.4462 43.5781 63.0325C46.2972 63.1888 48.9995 62.5802 51.4115 61.3072L67.0673 53.0494C67.4079 52.8707 67.4972 52.4241 67.2627 52.1226C66.7044 51.4023 65.4258 50.4085 62.8742 51.0841C62.5839 51.1622 62.3047 51.2683 62.0255 51.3856L54.1474 54.7468" stroke="#0043CE" stroke-width="2" stroke-miterlimit="10"/>
<path d="M21.4453 67.3596H27.2409V52.4185H21.4453" stroke="#0043CE" stroke-width="2" stroke-miterlimit="10"/>
<path d="M21.4453 48.0468H11.3896V71.3238H21.4453V48.0468Z" fill="#78A9FF"/>
</svg>
