<svg xmlns="http://www.w3.org/2000/svg" xmlns:xlink="http://www.w3.org/1999/xlink" viewBox="0,0,256,256" width="128px" height="128px"><g transform="translate(-19.2,-19.2) scale(1.15,1.15)"><g fill="#06bc1b" fill-rule="nonzero" stroke="none" stroke-width="none" stroke-linecap="butt" stroke-linejoin="none" stroke-miterlimit="10" stroke-dasharray="" stroke-dashoffset="0" font-family="none" font-weight="none" font-size="none" text-anchor="none" style="mix-blend-mode: normal"><path transform="translate(-7.93412,4.0296) scale(8,8)" d="M29.76126,6.86521c0.12106,0.43235 -0.06085,0.89238 -0.44485,1.12503c-6.18516,3.85863 -11.23513,9.08453 -15.41016,15.41797c-0.18368,0.27861 -0.49422,0.44726 -0.82793,0.44961c-0.3337,0.00235 -0.64659,-0.16189 -0.83418,-0.43789c-2.19236,-3.23434 -4.64621,-5.86812 -7.53516,-7.55664c-0.3209,-0.17379 -0.52166,-0.50857 -0.52382,-0.8735c-0.00216,-0.36493 0.19463,-0.70206 0.51345,-0.87964c0.31882,-0.17757 0.70905,-0.16739 1.01818,0.02658c2.86573,1.67495 5.20859,4.19616 7.3125,7.08008c4.15976,-6.03167 9.14535,-11.12883 15.22852,-14.92383c0.16088,-0.10316 0.34795,-0.15806 0.53906,-0.1582c0.44898,-0.00059 0.84332,0.29809 0.96438,0.73044z" id="strokeMainSVG" stroke="#06bc1b" stroke-width="2" stroke-linejoin="round"></path><g transform="translate(-7.93412,4.0296) scale(8,8)" stroke="none" stroke-width="1" stroke-linejoin="miter"><path d="M28.79688,6.13477c-0.19111,0.00015 -0.37818,0.05505 -0.53906,0.1582c-6.08316,3.795 -11.06875,8.89216 -15.22852,14.92383c-2.10391,-2.88392 -4.44677,-5.40513 -7.3125,-7.08008c-0.30912,-0.19396 -0.69936,-0.20415 -1.01818,-0.02658c-0.31882,0.17757 -0.51561,0.51471 -0.51345,0.87964c0.00216,0.36493 0.20292,0.69971 0.52382,0.8735c2.88895,1.68852 5.3428,4.3223 7.53516,7.55664c0.18759,0.276 0.50048,0.44024 0.83418,0.43789c0.3337,-0.00235 0.64425,-0.17099 0.82793,-0.44961c4.17503,-6.33344 9.22499,-11.55933 15.41016,-15.41797c0.384,-0.23264 0.56591,-0.69268 0.44485,-1.12503c-0.12106,-0.43235 -0.5154,-0.73103 -0.96438,-0.73044z"></path></g></g></g></svg>