<svg width="80" height="80" viewBox="0 0 80 80" fill="none" xmlns="http://www.w3.org/2000/svg">
<path d="M16.4795 9.61584V16.3195L31.3524 33.0818L39.7395 24.8763L16.4795 9.61584Z" stroke="#0043CE" stroke-width="2" stroke-linecap="round" stroke-linejoin="round"/>
<path d="M62.9993 9.61584V16.3195L48.1204 33.0818L39.7393 24.8763L62.9993 9.61584Z" stroke="#0043CE" stroke-width="2" stroke-linecap="round" stroke-linejoin="round"/>
<path d="M16.4795 9.61584H62.9996" stroke="#0043CE" stroke-width="2" stroke-linecap="round" stroke-linejoin="round"/>
<path d="M45.6313 30.6473L39.7391 36.4245L33.8408 30.6473" stroke="#0043CE" stroke-width="2" stroke-linecap="round" stroke-linejoin="round"/>
<path d="M36.8143 33.5602L30.9766 62.549L39.7392 71.3843" stroke="#0043CE" stroke-width="2" stroke-linecap="round" stroke-linejoin="round"/>
<path d="M42.6581 33.5602L48.4958 62.549L39.7393 71.3843" stroke="#0043CE" stroke-width="2" stroke-linecap="round" stroke-linejoin="round"/>
<path d="M42.2946 44.0911C42.2946 44.0911 40.9503 51.1097 34.9612 55.3124L33.6895 61.7315C35.4274 63.4876 38.0254 66.1037 39.7391 67.8296L45.7827 61.7315L42.2946 44.0851V44.0911Z" fill="#78A9FF"/>
</svg>
