<svg width="80" height="80" viewBox="0 0 80 80" fill="none" xmlns="http://www.w3.org/2000/svg">
<path d="M26.24 18.9891L16.0752 18.9696L16.0004 57.9265L26.1652 57.946L26.24 18.9891Z" stroke="#0043CE" stroke-width="2" stroke-linecap="round" stroke-linejoin="round"/>
<path d="M24.3062 12.0107L18.0435 12C16.9676 12 16.0898 12.8671 16.0898 13.9484L16.0791 18.9532L26.2439 18.9746L26.2546 13.9698C26.2546 12.8939 25.3875 12.0161 24.3062 12.0161V12.0107Z" stroke="#0043CE" stroke-width="2" stroke-miterlimit="10" stroke-linecap="round"/>
<path d="M18.4097 14.3263L18.4053 16.6279L23.9132 16.6385L23.9176 14.3369L18.4097 14.3263Z" fill="#78A9FF"/>
<path d="M16.0039 57.9102L21.2068 68L26.1687 57.9262L16.0039 57.9102Z" stroke="#0043CE" stroke-width="2" stroke-linecap="round" stroke-linejoin="round"/>
<path d="M23.594 33.4269L23.6154 21.5868L18.6963 21.576C18.6963 21.576 21.9721 24.4933 23.594 33.4269Z" fill="#78A9FF"/>
<path d="M21.1641 57.9102V47.269" stroke="#0043CE" stroke-width="2" stroke-linecap="round" stroke-linejoin="round"/>
<path d="M57.8841 62.9523C56.5941 62.9523 55.5557 61.9032 55.5557 60.6132L55.6092 18.9478L60.2821 18.9692L60.2286 60.6186C60.2286 61.9086 59.1741 62.9577 57.8841 62.9523Z" stroke="#0043CE" stroke-width="2" stroke-linecap="round" stroke-linejoin="round"/>
<path d="M57.948 12C56.658 12 55.6143 13.0438 55.6143 14.3338V18.9478H60.2872V14.3338C60.2872 13.0438 59.2434 12 57.9534 12H57.948Z" stroke="#0043CE" stroke-width="2" stroke-miterlimit="10" stroke-linecap="round"/>
<path d="M60.2822 15.9984H61.6364C62.8569 15.9984 63.8471 16.9887 63.8471 18.2091V25.2639" stroke="#0043CE" stroke-width="2" stroke-miterlimit="10" stroke-linecap="round"/>
<path d="M57.9219 62.9631V68" stroke="#0043CE" stroke-width="2" stroke-linecap="round" stroke-linejoin="round"/>
<path d="M46.0597 64.1675H43.2441" stroke="#0043CE" stroke-width="2" stroke-miterlimit="10" stroke-linecap="round"/>
<path d="M46.0597 59.6552H40.9746" stroke="#0043CE" stroke-width="2" stroke-miterlimit="10" stroke-linecap="round"/>
<path d="M46.0597 55.1428H43.2441" stroke="#0043CE" stroke-width="2" stroke-miterlimit="10" stroke-linecap="round"/>
<path d="M46.0597 50.6305H40.9746" stroke="#0043CE" stroke-width="2" stroke-miterlimit="10" stroke-linecap="round"/>
<path d="M46.0544 12H35.8896V67.5236H46.0544V12Z" stroke="#0043CE" stroke-width="2" stroke-miterlimit="10"/>
<path d="M46.0597 46.1128H43.2441" stroke="#0043CE" stroke-width="2" stroke-miterlimit="10" stroke-linecap="round"/>
<path d="M46.0597 41.6005H40.9746" stroke="#0043CE" stroke-width="2" stroke-miterlimit="10" stroke-linecap="round"/>
<path d="M46.0597 37.0881H43.2441" stroke="#0043CE" stroke-width="2" stroke-miterlimit="10" stroke-linecap="round"/>
<path d="M46.0597 32.5704H40.9746" stroke="#0043CE" stroke-width="2" stroke-miterlimit="10" stroke-linecap="round"/>
<path d="M46.0597 28.0581H43.2441" stroke="#0043CE" stroke-width="2" stroke-miterlimit="10" stroke-linecap="round"/>
<path d="M43.4367 23.519V14.6228H38.5176V18.9692C38.5176 18.9692 41.8256 19.8042 43.4367 23.519Z" fill="#78A9FF"/>
</svg>
