<svg width="80" height="80" viewBox="0 0 80 80" fill="none" xmlns="http://www.w3.org/2000/svg">
<path d="M57.2307 68.332L68.9996 65.8948L66.7801 54.7669C66.2902 52.3115 64.9537 50.0799 63.0184 48.4833C61.7846 47.4673 60.5328 46.8141 59.3353 46.548L49.8343 43.7903C49.6287 43.7298 49.4352 43.6391 49.2537 43.5181C48.7518 43.1794 48.4252 42.6412 48.3526 42.0425L47.9111 38.2808C50.5721 36.2124 52.5377 33.1281 53.4872 29.5236C55.1805 29.3724 56.4868 27.4855 56.4868 25.1027C56.4868 22.9014 55.3801 21.1233 53.8682 20.7423" stroke="#0043CE" stroke-width="2" stroke-miterlimit="10" stroke-linecap="round"/>
<path d="M27.0528 20.7726C25.5832 21.1899 24.5188 22.9437 24.5188 25.1088C24.5188 27.4856 25.813 29.3725 27.5064 29.5297C28.4559 33.1342 30.4214 36.2185 33.0824 38.2869L32.647 42.0486C32.5805 42.6473 32.2478 43.1855 31.7459 43.5242C31.5705 43.6452 31.3709 43.7359 31.1653 43.7963L21.6945 46.5481C20.4668 46.8202 19.215 47.4734 17.9812 48.4894C16.0399 50.0921 14.7033 52.3237 14.2195 54.773L12 65.9009L23.6903 68.32" stroke="#0043CE" stroke-width="2" stroke-miterlimit="10" stroke-linecap="round"/>
<path d="M53.8682 20.7483C53.8682 20.7483 54.6544 5 40.5027 5C26.351 5 27.0586 20.7725 27.0586 20.7725" stroke="#0043CE" stroke-width="2" stroke-miterlimit="10" stroke-linecap="round"/>
<path d="M28.0625 14.005C28.6128 12.8741 29.6893 12.0093 30.8747 11.5799C32.7918 10.8844 34.9388 11.4408 36.7954 12.2875C39.4746 13.5091 41.8211 14.9485 44.8269 15.2811C47.6935 15.5956 50.3182 15.2811 52.8885 13.9688" stroke="#0043CE" stroke-width="2" stroke-miterlimit="10" stroke-linecap="round"/>
<path d="M48.2504 41.1655L40.5032 48.1023L32.75 41.1655" stroke="#0043CE" stroke-width="2" stroke-linecap="round" stroke-linejoin="round"/>
<path d="M40.4608 75.9279L23.6904 72.8375V53.5392L40.4608 56.6235V75.9279Z" stroke="#0043CE" stroke-width="2" stroke-linecap="round" stroke-linejoin="round"/>
<path d="M57.2313 72.8375L40.4609 75.9279V56.6235L57.2313 53.5392V72.8375Z" stroke="#0043CE" stroke-width="2" stroke-linecap="round" stroke-linejoin="round"/>
<path d="M44.7246 62.3326L53.3185 60.8751" stroke="#0043CE" stroke-width="2" stroke-linecap="round" stroke-linejoin="round"/>
<path d="M44.7246 66.0943L53.3185 64.6307" stroke="#0043CE" stroke-width="2" stroke-linecap="round" stroke-linejoin="round"/>
<path d="M48.0687 45.4957L41.9302 51.2048C41.5976 51.5132 41.1501 51.6584 40.7086 51.6523C40.2671 51.6584 39.8196 51.5132 39.4869 51.2048L33.3485 45.4957L30.8447 46.167L40.6783 55.408L40.7086 55.3838L40.7388 55.408L50.5725 46.167L48.0687 45.4957Z" fill="#78A9FF"/>
</svg>
