<svg width="50" height="50" viewBox="0 0 50 50" fill="none" xmlns="http://www.w3.org/2000/svg">
<rect width="50" height="50" rx="24" fill="#0F62FE"/>
<rect width="18" height="18" transform="translate(16 16)" fill="white" style="mix-blend-mode:multiply"/>
<path d="M31.4406 24.4993L19.0656 18.3118C18.9686 18.2633 18.8597 18.2439 18.7519 18.2559C18.6441 18.2679 18.5421 18.3107 18.4581 18.3793C18.3779 18.4466 18.3181 18.5348 18.2853 18.6342C18.2525 18.7336 18.2481 18.8401 18.2725 18.9418L19.9375 25L18.25 31.0412C18.2271 31.1262 18.2244 31.2154 18.2422 31.3015C18.26 31.3877 18.2977 31.4686 18.3525 31.5375C18.4072 31.6064 18.4773 31.6616 18.5572 31.6985C18.6371 31.7354 18.7245 31.753 18.8125 31.75C18.9006 31.7494 18.9873 31.7283 19.0656 31.6881L31.4406 25.5006C31.5328 25.4534 31.6101 25.3817 31.6641 25.2933C31.7181 25.205 31.7466 25.1035 31.7466 25C31.7466 24.8964 31.7181 24.7949 31.6641 24.7066C31.6101 24.6183 31.5328 24.5466 31.4406 24.4993ZM19.6844 30.1243L20.9275 25.5625H26.125V24.4375H20.9275L19.6844 19.8756L29.9275 25L19.6844 30.1243Z" fill="white"/>
</svg>
