<svg width="80" height="80" viewBox="0 0 80 80" fill="none" xmlns="http://www.w3.org/2000/svg">
<path d="M35.7928 54.5031H43.7503C43.7503 54.5031 43.5631 56.5334 43.9609 58.5344C44.271 60.0674 45.3945 61.4249 47.0562 62.2791C47.5242 62.519 47.3019 63.0807 46.7461 63.0807H24.8338C24.2779 63.0807 24.0556 62.519 24.5237 62.2791C26.1912 61.4249 27.3146 60.0674 27.6189 58.5344C28.0226 56.5392 27.8295 54.5031 27.8295 54.5031H35.787H35.7928Z" stroke="#0043CE" stroke-width="2" stroke-linecap="round" stroke-linejoin="round"/>
<path d="M36.3256 51.2264C36.3256 51.519 36.0857 51.7589 35.7932 51.7589C35.5006 51.7589 35.2607 51.519 35.2607 51.2264C35.2607 50.9339 35.5006 50.694 35.7932 50.694C36.0857 50.694 36.3256 50.9339 36.3256 51.2264Z" stroke="#0043CE" stroke-width="2" stroke-linecap="round" stroke-linejoin="round"/>
<path d="M54.1715 54.503H11.2013C9.71509 54.503 8.50977 53.2977 8.50977 51.8115V47.9498H19.0651" stroke="#0043CE" stroke-width="2" stroke-linecap="round" stroke-linejoin="round"/>
<path d="M54.1306 47.9498H8.50977V20.169C8.50977 18.5599 9.81455 17.2493 11.4295 17.2493H60.163C61.7721 17.2493 63.0827 18.5541 63.0827 20.169V33.72" stroke="#0043CE" stroke-width="2" stroke-linecap="round" stroke-linejoin="round"/>
<path d="M70.2093 57.218H55.9561" stroke="#0043CE" stroke-width="2" stroke-miterlimit="10"/>
<path d="M70.6309 63.0749H55.541C54.7862 63.0749 54.1719 62.4606 54.1719 61.7058V35.0892C54.1719 34.3345 54.7862 33.7201 55.541 33.7201H70.6309C71.3857 33.7201 72.0001 34.3345 72.0001 35.0892V61.7058C72.0001 62.4606 71.3857 63.0749 70.6309 63.0749Z" stroke="#0043CE" stroke-width="2" stroke-miterlimit="10"/>
<path d="M63.5563 60.1728C63.5563 59.9095 63.3456 59.6989 63.0823 59.6989C62.819 59.6989 62.6084 59.9095 62.6084 60.1728C62.6084 60.4361 62.819 60.6467 63.0823 60.6467C63.3456 60.6467 63.5563 60.4361 63.5563 60.1728Z" stroke="#0043CE" stroke-width="2" stroke-miterlimit="10"/>
<path d="M61.3154 36.6924H63.0825H64.8495" stroke="#0043CE" stroke-width="2" stroke-linecap="round" stroke-linejoin="round"/>
<path d="M30.5862 22.8546H14.2207V30.9818H30.5862V22.8546Z" fill="#78A9FF"/>
<path d="M14.2207 34.7147H30.5862" stroke="#0043CE" stroke-width="2" stroke-linecap="round" stroke-linejoin="round"/>
<path d="M14.2207 38.9977H30.5862" stroke="#0043CE" stroke-width="2" stroke-linecap="round" stroke-linejoin="round"/>
</svg>
