<svg width="38" height="38" viewBox="0 0 38 38" fill="none" xmlns="http://www.w3.org/2000/svg">
<rect x="0.5" y="0.5" width="37" height="37" rx="15.5" fill="white"/>
<rect width="18" height="18" transform="translate(10 10)" fill="white" style="mix-blend-mode:multiply"/>
<path d="M13.9375 11.125H11.125V19H13.9375V11.125Z" fill="#4D5358"/>
<path d="M22.9375 11.125H15.0625V19.4515L16.7737 22.0185L17.2492 25.3465C17.2885 25.6141 17.4225 25.8588 17.6269 26.036C17.8312 26.2133 18.0923 26.3114 18.3628 26.3125H18.4375C18.8849 26.312 19.3138 26.1341 19.6302 25.8177C19.9466 25.5013 20.1245 25.0724 20.125 24.625V21.25H24.625C25.2215 21.2493 25.7934 21.0121 26.2153 20.5903C26.6371 20.1684 26.8743 19.5965 26.875 19V15.0625C26.8738 14.0186 26.4586 13.0177 25.7205 12.2795C24.9823 11.5414 23.9814 11.1262 22.9375 11.125Z" fill="#4D5358"/>
<rect x="0.5" y="0.5" width="37" height="37" rx="15.5" stroke="#C1C7CD"/>
</svg>
